<svg xmlns="http://www.w3.org/2000/svg" xmlns:xlink="http://www.w3.org/1999/xlink" width="1400" zoomAndPan="magnify" viewBox="0 0 1050 1049.999947" height="1400" preserveAspectRatio="xMidYMid meet" version="1.0"><defs><clipPath id="f886ec7a30"><path d="M 671.046875 667.339844 L 986.046875 667.339844 L 986.046875 982.339844 L 671.046875 982.339844 Z M 671.046875 667.339844 " clip-rule="nonzero"/></clipPath><clipPath id="bab0088d6b"><path d="M 828.546875 667.339844 C 741.5625 667.339844 671.046875 737.855469 671.046875 824.839844 C 671.046875 911.824219 741.5625 982.339844 828.546875 982.339844 C 915.53125 982.339844 986.046875 911.824219 986.046875 824.839844 C 986.046875 737.855469 915.53125 667.339844 828.546875 667.339844 Z M 828.546875 667.339844 " clip-rule="nonzero"/></clipPath><clipPath id="bc44b5b736"><path d="M 0.046875 0.339844 L 315.046875 0.339844 L 315.046875 315.339844 L 0.046875 315.339844 Z M 0.046875 0.339844 " clip-rule="nonzero"/></clipPath><clipPath id="d468bcd902"><path d="M 157.546875 0.339844 C 70.5625 0.339844 0.046875 70.855469 0.046875 157.839844 C 0.046875 244.824219 70.5625 315.339844 157.546875 315.339844 C 244.53125 315.339844 315.046875 244.824219 315.046875 157.839844 C 315.046875 70.855469 244.53125 0.339844 157.546875 0.339844 Z M 157.546875 0.339844 " clip-rule="nonzero"/></clipPath><clipPath id="caa9bb3bab"><rect x="0" width="316" y="0" height="316"/></clipPath><clipPath id="f362f1aa44"><path d="M 769.695312 743.722656 L 911.226562 743.722656 L 911.226562 905.710938 L 769.695312 905.710938 Z M 769.695312 743.722656 " clip-rule="nonzero"/></clipPath><clipPath id="018dcc8e8f"><path d="M 911.226562 824.835938 L 769.695312 743.960938 L 769.695312 905.710938 Z M 911.226562 824.835938 " clip-rule="nonzero"/></clipPath><clipPath id="22742c69f4"><path d="M 0.695312 0.761719 L 142.226562 0.761719 L 142.226562 162.710938 L 0.695312 162.710938 Z M 0.695312 0.761719 " clip-rule="nonzero"/></clipPath><clipPath id="d372a600ed"><path d="M 142.226562 81.835938 L 0.695312 0.960938 L 0.695312 162.710938 Z M 142.226562 81.835938 " clip-rule="nonzero"/></clipPath><clipPath id="356b908940"><rect x="0" width="143" y="0" height="163"/></clipPath></defs><g clip-path="url(#f886ec7a30)"><g clip-path="url(#bab0088d6b)"><g transform="matrix(1, 0, 0, 1, 671, 667)"><g clip-path="url(#caa9bb3bab)"><g clip-path="url(#bc44b5b736)"><g clip-path="url(#d468bcd902)"><path fill="#1ed760" d="M 0.046875 0.339844 L 315.046875 0.339844 L 315.046875 315.339844 L 0.046875 315.339844 Z M 0.046875 0.339844 " fill-opacity="1" fill-rule="nonzero"/></g></g></g></g></g></g><g clip-path="url(#f362f1aa44)"><g clip-path="url(#018dcc8e8f)"><g transform="matrix(1, 0, 0, 1, 769, 743)"><g clip-path="url(#356b908940)"><g clip-path="url(#22742c69f4)"><g clip-path="url(#d372a600ed)"><path fill="#000000" d="M 0.695312 162.710938 L 0.695312 0.722656 L 142.226562 0.722656 L 142.226562 162.710938 Z M 0.695312 162.710938 " fill-opacity="1" fill-rule="nonzero"/></g></g></g></g></g></g></svg>