<?xml version="1.0" ?><!DOCTYPE svg  PUBLIC '-//W3C//DTD SVG 1.1//EN'  'http://www.w3.org/Graphics/SVG/1.1/DTD/svg11.dtd'><svg height="512px" style="shape-rendering:geometricPrecision; text-rendering:geometricPrecision; image-rendering:optimizeQuality; fill-rule:evenodd; clip-rule:evenodd" version="1.1" viewBox="0 0 512 512" width="512px" xml:space="preserve" xmlns="http://www.w3.org/2000/svg" xmlns:xlink="http://www.w3.org/1999/xlink" xmlns:xodm="http://www.corel.com/coreldraw/odm/2003"><defs><style type="text/css">
   <![CDATA[
    .fil0 {fill:black}
   ]]>
  </style></defs><g id="Layer_x0020_1"><path class="fil0" d="M256 0c141.39,0 256,114.61 256,256 0,141.39 -114.61,256 -256,256 -141.39,0 -256,-114.61 -256,-256 0,-141.39 114.61,-256 256,-256zm81.72 240.76c-44.32,-26.31 -118.43,-29.08 -160.67,-15.92 -6.93,2.08 -13.86,-2.08 -15.94,-8.31 -2.07,-6.93 2.08,-13.85 8.32,-15.93 49.17,-14.55 130.2,-11.78 181.46,18.69 6.23,3.47 8.3,11.78 4.84,18.01 -3.46,4.85 -11.77,6.93 -18.01,3.46zm-1.38 38.79c-3.46,4.85 -9.69,6.93 -14.54,3.47 -37.4,-22.86 -94.2,-29.78 -137.83,-15.94 -5.54,1.39 -11.77,-1.38 -13.16,-6.92 -1.38,-5.54 1.39,-11.77 6.93,-13.16 50.55,-15.23 112.89,-7.62 155.83,18.7 4.15,2.08 6.23,9.01 2.77,13.85zm-16.62 38.09c-2.77,4.16 -7.62,5.54 -11.77,2.78 -32.56,-20.09 -73.42,-24.24 -121.9,-13.16 -4.85,1.38 -9,-2.08 -10.39,-6.24 -1.39,-4.84 2.08,-9 6.23,-10.39 52.64,-11.77 98.35,-6.92 134.37,15.24 4.84,2.08 5.54,7.62 3.46,11.77zm-63.72 -200.16c-76.5,0 -138.52,62.02 -138.52,138.52 0,76.5 62.02,138.52 138.52,138.52 76.5,0 138.52,-62.02 138.52,-138.52 0,-76.5 -62.02,-138.52 -138.52,-138.52z"/></g></svg>